<?xml version="1.0" encoding="utf-8"?>
<!-- Generator: Adobe Illustrator 16.0.0, SVG Export Plug-In . SVG Version: 6.00 Build 0)  -->
<!DOCTYPE svg PUBLIC "-//W3C//DTD SVG 1.1//EN" "http://www.w3.org/Graphics/SVG/1.1/DTD/svg11.dtd">
<svg version="1.1" id="Layer_1" xmlns="http://www.w3.org/2000/svg" xmlns:xlink="http://www.w3.org/1999/xlink" x="0px" y="0px"
	 width="500px" height="500px" viewBox="0 0 500 500" enable-background="new 0 0 500 500" xml:space="preserve">
<g>
	<g>
		<path fill="#010101" d="M240.639,310.059l-43.814-165.104H178.56v112.18c0,13.852-1.715,24.76-5.097,32.422
			c-3.411,7.748-8.895,13.736-16.3,17.807c-1.874,1.029-3.839,1.928-5.889,2.697h89.365V310.059z"/>
		<path fill="#010101" d="M342.287,309.814l-34.649-125.275c-1.782-6.385-3.125-11.301-4.021-14.704
			c-1.315,5.572-2.576,10.505-3.758,14.708l-34.947,125.516h77.441L342.287,309.814z"/>
		<path fill="#010101" d="M318.414,144.955l23.494,83.046c5.209,18.202,9.189,35.683,11.858,52.067
			c1.853-8.721,4.126-18.469,6.906-29.6l25.76-105.514H318.414z"/>
		<path fill="#010101" d="M258.631,255.818l31.242-110.863h-68.371l24.979,107.661c2.26,9.464,4.274,18.967,6.007,28.321
			C255.886,266.716,257.947,258.277,258.631,255.818z"/>
		<polygon fill="#010101" points="365.395,310.059 409.46,310.059 409.46,149.374 		"/>
		<path fill="#010101" d="M97.226,300.637c-2.845-3.078-5.144-6.734-6.924-10.916v20.34h20.957
			C105.759,307.92,101.06,304.786,97.226,300.637z"/>
		<path fill="#010101" d="M107.737,258.859l0.051,1.257c0.506,12.231,2.784,20.67,6.768,25.073
			c3.942,4.367,9.504,6.582,16.533,6.582c5.214,0,9.768-1.205,13.533-3.582c3.715-2.355,6.31-5.592,7.709-9.617
			c1.445-4.153,2.176-10.95,2.176-20.199V144.955H90.302v116.294L107.737,258.859z"/>
	</g>
	<g>
		<rect x="89.952" y="320.094" fill="#010101" width="3.732" height="26.422"/>
		<path fill="#010101" d="M139.344,338.395c-0.491,1.41-0.928,2.711-1.3,3.869c-0.235-0.744-0.607-1.896-1.151-3.537l-6.268-18.556
			l-0.027-0.077h-5.465v26.43h3.607v-21.731l7.43,21.655l0.026,0.076h3.317l7.495-21.379v21.379h3.606v-26.43h-4.904
			L139.344,338.395z"/>
		<path fill="#010101" d="M192.869,320.094h-3.928l-10.185,26.273l-0.061,0.156h3.961l2.909-7.938h10.909l3.05,7.866l0.028,0.07
			h4.244l-10.897-26.359L192.869,320.094z M195.302,335.528h-8.636l2.836-7.522c0.565-1.525,1.018-3.062,1.346-4.574
			c0.412,1.352,0.999,3.027,1.748,4.994L195.302,335.528z"/>
		<path fill="#010101" d="M244.306,332.949v3.297h7.776v4.714c-0.727,0.631-1.776,1.22-3.212,1.793
			c-1.423,0.573-2.904,0.863-4.4,0.863c-1.723,0-3.369-0.384-4.893-1.138c-1.523-0.748-2.699-1.906-3.493-3.448
			c-0.803-1.563-1.209-3.521-1.209-5.818c0-1.86,0.339-3.616,1.006-5.215c0.379-0.917,0.932-1.784,1.65-2.575
			c0.711-0.767,1.649-1.394,2.784-1.861c1.144-0.478,2.525-0.722,4.104-0.722c1.312,0,2.522,0.23,3.598,0.681
			c1.095,0.463,1.907,1.05,2.485,1.797c0.574,0.742,1.068,1.791,1.466,3.111l0.03,0.106l3.255-0.89l0.108-0.028l-0.025-0.11
			c-0.467-1.794-1.129-3.209-2.025-4.332c-0.869-1.1-2.109-1.974-3.681-2.594c-1.553-0.622-3.313-0.938-5.231-0.938
			c-2.632,0-5,0.545-7.039,1.623c-2.041,1.092-3.62,2.768-4.698,4.979c-1.082,2.229-1.63,4.646-1.63,7.181
			c0,2.575,0.553,4.946,1.644,7.051c1.098,2.112,2.688,3.691,4.86,4.824c2.108,1.104,4.509,1.662,7.136,1.662
			c1.938,0,3.844-0.349,5.668-1.035c1.805-0.67,3.604-1.703,5.355-3.078l0.043-0.033v-9.887l-11.321,0.021L244.306,332.949
			L244.306,332.949z M253.732,324.169c0.004,0.004,0.006,0.011,0.008,0.015C253.738,324.18,253.736,324.173,253.732,324.169z
			 M252.464,322.592c-0.022-0.025-0.05-0.047-0.073-0.068C252.414,322.545,252.439,322.566,252.464,322.592z"/>
		<polygon fill="#010101" points="290.094,334.507 304.732,334.507 304.732,331.209 290.094,331.209 290.094,323.411 
			305.72,323.411 305.72,320.094 286.369,320.094 286.369,346.523 306.332,346.523 306.332,343.198 290.094,343.198 		"/>
		<path fill="#010101" d="M352.619,335.708c-0.432-0.388-1.025-0.769-1.811-1.157c2.373-0.379,4.169-1.189,5.337-2.419
			c1.229-1.278,1.851-2.888,1.851-4.778c0-1.455-0.375-2.803-1.115-4.008c-0.738-1.199-1.744-2.055-2.995-2.535
			c-1.254-0.477-3.076-0.717-5.419-0.717h-11.852v26.43h3.727v-11.639h3.956c0.917,0,1.546,0.043,1.923,0.131
			c0.559,0.133,1.082,0.358,1.562,0.674c0.513,0.332,1.084,0.896,1.754,1.725c0.676,0.865,1.546,2.114,2.513,3.611l3.508,5.447
			l0.034,0.051h4.671l-4.724-7.303C354.638,337.832,353.656,336.652,352.619,335.708z M353.479,329.643
			c-0.451,0.688-1.123,1.201-2.003,1.523c-0.874,0.321-2.124,0.484-3.71,0.484h-7.425v-8.432h8.265c1.92,0,3.348,0.395,4.241,1.17
			c0.89,0.793,1.323,1.76,1.323,2.965C354.171,328.168,353.938,328.938,353.479,329.643z"/>
		<path fill="#010101" d="M405.701,320.094l-5.165,7.75c-1.003,1.522-1.942,3.024-2.793,4.465c-0.806-1.422-1.677-2.853-2.593-4.256
			l-5.222-7.908l-0.033-0.051h-4.534l10.297,15.254v11.176h3.729v-11.176l10.662-15.254H405.701L405.701,320.094z"/>
	</g>
</g>
</svg>
