<?xml version="1.0" encoding="utf-8"?>
<!-- Generator: Adobe Illustrator 16.0.0, SVG Export Plug-In . SVG Version: 6.00 Build 0)  -->
<!DOCTYPE svg PUBLIC "-//W3C//DTD SVG 1.1//EN" "http://www.w3.org/Graphics/SVG/1.1/DTD/svg11.dtd">
<svg version="1.1" id="Layer_1" xmlns="http://www.w3.org/2000/svg" xmlns:xlink="http://www.w3.org/1999/xlink" x="0px" y="0px"
	 width="500px" height="500px" viewBox="0 0 500 500" enable-background="new 0 0 500 500" xml:space="preserve">
<g>
	<path d="M148.529,280.73c-1.64,1.733-3.582,3.854-6.214,3.97c-2.488,0.106-3.502-2.149-3.452-4.574
		c0.029-1.245,0.173-2.753,0.69-3.711c3.524,0.749,6.265-0.265,8.371-1.812c0.871-0.64,2.115-1.683,2.763-2.416
		c1.898-2.15,4.271-7.387,2.416-10.442c-1.028-1.696-3.653-3.277-6.299-2.588c-1.898,0.495-3.862,1.733-5.351,3.02
		c-2.869,2.476-4.395,6.431-6.213,8.976c-0.899-2.711-0.756-6.409,0.308-8.883c0.331-0.777,1.261-1.738,1.417-1.99
		c-1.417,0.627-2.244,2.101-2.761,3.625c-0.726,2.144-1,5.156-0.518,7.422c0.165,0.777,0.675,1.518,0.69,2.158
		c-0.431,1.431-0.561,2.121-0.863,3.02c-0.777,2.311-0.734,4.746,0.173,6.99c1.258,3.113,3.639,5.631,7.767,4.486
		c0.784-0.215,1.597-0.646,2.244-1.035c3.524-2.101,6.207-4.989,8.63-7.939c0.475-0.575,0.899-1.266,1.554-1.638
		c-0.46,2.356-1.129,4.6-1.726,6.815c-0.604,2.229-1.496,4.365-1.64,6.732c1.402-0.036,2.56-1.102,3.538-1.986
		c1.122-1.007,2.374-2.336,2.935-3.623c1.704-3.912,2.416-8.4,4.228-12.688c1.158-2.739,3.402-5.221,5.525-7.164
		c4.345-3.98,3.374,1.723,2.572,4.449c-1.648,5.607-3.99,10.812-4.645,16.695c-0.288,2.582-0.611,4.553,2.416,4.229
		c2.992-0.317,5.02-2.504,6.991-4.059c1.388-1.098,2.33-2.681,3.625-3.537c0.618,2.633,1.301,4.826,4.056,5.179
		c2.841,0.368,4.934-0.675,6.386-1.726c1.1-0.791,1.841-1.871,2.935-2.418c0.216,1.367-0.13,2.547,0.431,3.537
		c0.691,1.225,2.604,1.583,4.056,1.469c2.668-0.209,4.337-2.244,5.437-3.97c0.431-0.677,0.597-1.604,1.294-1.897
		c0.367,3.078,1.561,6.945,5.179,5.955c1.042-0.289,2.279-1.28,3.365-1.986c1.137-0.732,2.229-1.625,3.02-2.415
		c0.647-0.647,0.978-1.634,1.813-1.897c0.251,1.86-0.065,5.105,1.554,5.695c0.639,0.229,1.531,0,2.243-0.347
		c1.805-0.87,2.978-2.718,4.314-4.058c1.194-1.192,2.136-2.5,3.193-3.709c0.518-0.591,0.835-1.591,1.64-1.642
		c-0.094,2.755-0.992,7.415,0.777,8.89c1.489,1.244,4.221,0.575,5.522-0.174c1.036-0.595,2.23-1.703,3.193-2.587
		c0.503-0.462,0.942-1.002,1.38-1.469c0.461-0.489,0.621-0.64,1.489-1.509c0.136,2.4-0.331,5.516,1.187,6.688
		c0.878,0.675,2.596,0.56,3.711,0.259c2.567-0.69,5.035-2.518,6.645-4.488c2.129-2.596,3.892-6.363,4.488-10.355
		c0.201-1.337,0.618-3.113-0.604-4.056c-1.367-0.072-2.365,0.754-3.021,1.553c-1.15,1.409-2.013,3.524-2.331,5.438
		c1.604-1.994,1.785-5.41,4.574-6.215c-0.624,3.947-2.199,7.976-4.487,10.527c-0.94,1.05-2.208,2.885-3.969,1.727
		c-0.238-1.97,0.359-4.041,0.776-6.039c0.835-4.021,1.906-7.748,2.935-11.479c0.46-1.683,1.128-3.933,1.898-5.349
		c0.453-0.836,1.494-1.734,2.244-2.59c5.356-6.164,9.968-12.355,14.065-20.021c3.337-6.234,6.321-13.34,7.681-21.574
		c0.512-3.107,1.401-9.047-0.777-10.874c-2.178-1.827-3.982,0.877-5.264,2.416c-1.057,1.273-1.905,2.639-2.674,3.797
		c-5.25,7.925-9.147,16.691-12.688,26.062c-1.158,3.063-2.165,6.3-3.451,9.406c-1.281,3.087-2.59,6.208-3.625,9.322
		c-1.827,5.485-3.912,11.291-5.264,17.26c-0.202,0.906-0.281,1.955-0.604,2.674c-0.31,0.697-1.085,1.433-1.64,2.158
		c-1.166,1.547-2.179,2.955-3.366,4.314c-0.611,0.696-1.249,1.627-2.157,1.727c-0.284-0.27,0.028-3.588,0.172-5.352
		c0.137-1.74,0.598-3.422,0.949-5.091c0.72-3.401,1.375-6.761,2.158-9.927c0.216-0.869,1.238-1.904,1.812-2.76
		c0.605-0.898,1.194-1.828,1.727-2.677c7.796-12.455,15.979-25.896,17.174-44.098c0.086-1.351,0.094-2.819,0-4.142
		c-0.159-2.194-0.238-4.466-1.209-6.041c-1.689,0.554-2.704,2.223-3.797,3.539c-7.666,9.211-13.009,22.035-16.311,35.382
		c-0.956,3.862-1.768,7.896-2.934,11.824c-1.166,3.939-2.071,7.974-2.935,11.821c-0.229,1.035-0.374,2.029-0.689,2.935
		c-0.302,0.862-0.812,1.633-1.208,2.504c-1.963,4.313-4.272,8.067-7.335,11.132c-0.561,0.562-1.086,1.524-1.985,1.554
		c-0.159-2.906,0.791-5.639,1.64-8.199c1.705-5.171,3.279-10.195,5.005-15.359c0.849-2.539,2.136-4.998,2.503-7.77
		c-0.914,0.619-1.043,1.756-1.64,2.592c-1.489,2.076-3.431,3.588-6.127,4.399c-0.482,1.043-0.618,2.43-1.467,3.106
		c0.532-0.424-2.582-3.465-3.013-3.697c-1.46-0.774-3.165-0.666-4.603,0.103c-2.863,1.519-4.667,5.3-6.292,7.976
		c-1.064,1.748-1.957,3.566-2.661,5.486c-1.094,2.992-0.935,5.408-3.021,7.997c-0.59,0.734-1.28,1.937-2.157,1.899
		c-2.898-0.109,1.229-10.357,1.74-11.859c0.942-2.804,1.604-5.746,2.661-8.508c0.367-0.957,1.395-1.956,2.071-3.021
		c0.676-1.062,1.359-2.172,1.985-3.105c4.206-6.292,7.392-12.621,10.701-19.851c3.603-7.873,6.508-17.963,5.609-29.512
		c-0.107-1.395-0.143-2.926-1.036-3.97c-0.279-0.036-0.316,0.102-0.431,0.173c-1.912,1.129-3.696,3.774-5.178,5.781
		c-4.768,6.458-8.292,13.931-11.132,21.833c-3.97,11.053-5.905,23.259-9.32,34.606c-0.612-1.488-0.389-3.438-1.381-4.402
		c-0.338-0.322-1.431-1.006-1.985-1.122c-1.51-0.322-2.861,0.432-3.711,0.952c-6.716,4.098-8.737,13.025-13.376,18.982
		c-0.784,1.008-1.777,1.828-2.589,2.762c-0.784,0.9-1.573,1.853-2.751,2c0.081-3.49,2.972-7.789,4.318-11.013
		c1.337-3.204,7.186-16.046-0.013-16.53c-1.273-0.086-2.438,0.508-3.452,1.033c-2.1,1.096-4.063,2.102-5.869,3.28
		c-0.949,0.62-1.805,1.452-2.761,1.642c0.158-3.678,1.913-6.939,2.848-9.84c-0.856,0.381-1.403,1.237-1.985,1.9
		c-1.863,2.128-4.056,3.744-6.213,5.521c-0.798,2.66-0.957,5.695-1.898,8.631c-0.367,1.142-1.294,2.66-2.071,3.969
		C152.161,276.675,150.564,278.58,148.529,280.73z M143.011,266.357c0.518-0.842,1.16-1.637,1.721-2.195
		c1.23-1.23,4.48-2.268,4.918,0.43c0.296,1.791-0.84,3.747-1.726,5.266c-1.358,2.338-3.056,4.754-6.04,5.18
		c-0.568,0.079-1.481,0.093-1.985-0.434C140.165,271.689,141.587,268.673,143.011,266.357z M264.083,228.951
		c1.187-3.106,2.373-5.667,3.884-8.457c1.598-2.941,3.243-5.905,5.006-8.803c0.898-1.481,1.812-2.971,2.588-4.314
		c1.33-0.892,1.008,2.401,0.863,3.625c-1.107,9.572-4.242,17.388-7.767,24.422c-3.603,7.185-7.938,13.505-12.601,19.59
		c-0.654,0.862-1.164,1.949-2.156,2.416C257.344,247.938,260.48,238.38,264.083,228.951z M254.591,213.936
		c1.015-2.136,1.862-4.409,3.193-5.955c0.962,0.044,0.688,1.913,0.688,3.28c0,1.531-0.015,2.718-0.087,3.624
		c-1.092,13.938-6.946,25.256-12.513,35.125c-1.438,2.545-2.948,4.969-4.487,7.42c-0.483,0.771-0.971,1.654-1.727,2.157
		C243.408,243.536,248.039,227.7,254.591,213.936z M208.937,276.898c1.182-5.217,3.932-10.287,7.77-14.032
		c0.941-0.921,3.005,2.416,3.02,3.452c0.015,0.783-0.762,2.156-1.122,3.107c-0.784,2.083-1.301,4.162-1.812,6.559
		c-0.229,1.063-0.215,2.438-0.604,3.539c-0.266,0.762-1.999,2.5-2.588,3.104c-1.31,1.332-2.999,2.61-4.748,3.021
		C207.791,285.896,208.738,277.773,208.937,276.898z M219.381,213.332c0.941-2.029,1.711-4.25,2.933-5.696
		c0.029-0.035,0.051-0.272,0.26-0.258h0.171c0.863,1.079,0.525,2.69,0.518,3.969c-0.022,4.2-0.776,8.213-1.553,11.738
		c-2.122,9.601-5.991,17.618-10.355,25.112c-1.64,2.812-3.215,5.538-5.005,8.284c-0.576,0.877-1.064,1.849-1.899,2.504
		C207.838,243.262,213.031,227.032,219.381,213.332z M184.336,278.113c0.633-2.165,5.458-16.907,9.119-15.499
		c0.309,0.114,0.561,0.468,0.726,1.165c0.367,1.561,0,3.51-0.194,5.084c-0.381,3.238-1.043,5.941-2.309,8.934
		c-1.173,2.775-1.827,4.4-3.884,6.041c-1.459,1.165-3.818,1.782-4.372-0.598C183.035,281.557,183.868,279.688,184.336,278.113z
		 M400.942,250.911c-1.242,0.483-2.661,0.786-3.786,1.515c-1.24,0.799-1.567,2.356-2.223,3.582c-0.49,0.918-1.214,1.69-1.49,2.717
		c1.572,0,3.209-0.543,4.728-0.91c1.538-0.373,3.064-0.847,4.422-1.681c2.069-1.267,3.83-3.224,5.196-5.206
		c0.374-0.543,0.723-1.106,1.029-1.69c0.102-0.193,0.197-0.388,0.292-0.587c0.093-0.199,0.571-1.734,0.646-1.75
		c-0.651,0.129-1.447,0.764-2.05,1.056c-0.759,0.368-1.523,0.717-2.292,1.06C403.935,249.672,402.451,250.325,400.942,250.911z
		 M476.442,185.893c-0.462,2.925-1.13,5.773-1.995,8.53c-0.864,2.756-1.929,5.42-3.184,7.978
		c-14.22,27.83-47.473,35.219-76.201,36.253c2.529-5.518,4.797-12.118,6.3-19.158c0.503-2.374,1.021-4.826,1.208-7.25
		c0.173-2.315,0.302-5.896-1.727-6.041c-1.358-0.093-3.229,1.848-4.229,2.848c-7.602,7.601-13.059,17.611-17.69,28.304
		c-0.428,0.833-1.046,2.171-1.046,2.171s-1.146,0.073-1.891,0.073c-3.328,0-8.691,0.104-10.564-0.073
		c-4.896-0.583-10.352-2.95-10.352-2.95s6.111,4.283,10.367,5.212c3.703,0.999,9.14,1.081,11.242,1.179
		c-2.273,6.039-5.854,23.083-6.216,23.817c-0.366,0.762-1.517,1.567-2.243,2.243c-0.835,0.771-1.975,1.744-2.889,2.082
		c0.391-4.389,0.336-9.812-3.153-10.971c-0.963-0.322-2.745-0.358-3.796-0.259c-2.972,0.294-4.539,2.597-6.127,4.487
		c-4.488,5.343-6.329,13.447-11.564,17.777c-0.522,0.433-0.908,0.789-1.586,0.812c0.737-0.024,8.03-28.315-2.385-23.507
		c-0.838,0.388-1.688,0.773-2.428,1.331c-0.962,0.726-1.848,1.745-2.626,2.795c-0.345,0.446-0.897,1.194-0.897,1.194
		s0.66-2.885-0.262-4.373c-0.504-0.812-1.877-1.2-2.849-1.295c-1.416-0.138-2.927,0.373-4.142,0.862
		c-1.353,0.541-1.801,0.853-3.279,1.64c0.31-1.625,0.676-3.293,1.035-4.916c0.332-1.514,0.857-4.725,0.857-4.725
		s-0.816,1.883-1.199,2.646c-1.145,2.289-3.244,4.08-5.096,5.787c-0.646,0.598-1.748,1.179-2.07,1.726
		c-0.272,0.467-0.481,1.519-0.689,2.331c-0.604,2.352-1.051,5.197-1.9,7.161c-1.934,4.481-5.622,7.812-9.49,10.442
		c-1.181,0.799-3.365,2.021-5.007,1.469c-2.235-0.756-1.75-5.407-1.03-7.579c1.396,0.224,2.638,0.81,5.174-0.017
		c4.982-1.732,9.189-6.604,9.232-12.945c-0.06-2.672-3.537-5.2-6.904-4.313c-4.334,1.136-7.213,4.861-9.404,8.283
		c-0.82,1.274-1.41,2.597-2.243,3.71c-0.317-0.732-0.554-1.954-0.649-2.766c-0.162-1.375-0.052-2.731,0.246-4.017
		c0.273-1.182,0.738-3.053,2.069-3.476c-0.257,0.082-0.556,0.193-0.772,0.359c-1.709,1.312-2.451,3.543-2.707,5.605
		c-0.127,1.016-0.127,2.118,0.019,3.131c0.134,0.93,1.119,2.602,0.846,3.492c-1.29,4.206-2.345,9.854,1.409,13.229
		c3.057,2.746,7.341,1.851,10.42-0.381c1.171-0.85,2.077-1.919,3.1-2.924c0.734-0.719,1.304-1.566,2.158-1.984
		c-0.921,2.849-2.529,5.006-3.537,7.768c1.113-0.237,1.963-0.698,2.935-1.035c1.034-0.368,2.251-0.411,3.192-0.863
		c1.303-0.627,2.395-3.597,2.934-4.919c1.921-4.704,3.812-9.305,5.352-14.325c0.322-1.043,0.119-0.721,0.863-3.105
		c0.725-0.821,1.581-1.545,2.544-1.913c0.509-0.194,1.687-0.812,2.121-0.257c0.5,0.639,0.133,1.779,0.017,2.492
		c-0.949,5.818-2.345,11.352-4.25,16.937c-0.699,2.043-1.641,3.972-2.072,6.04c2.101-0.251,3.668-1.697,5.007-2.934
		c3.651-3.373,5.291-8.514,6.618-13.16c0.384-1.337,0.424-2.811,1.054-4.068c0.556-1.104,1.537-1.957,2.338-2.877
		c0.485-0.56,2.302-2.22,3.171-1.979c1.621,0.759,0.602,3.88,0.374,5.136c-0.901,4.978-1.959,9.924-3.631,14.705
		c-0.286,0.819-0.885,2.052-0.862,2.762c0.059,1.949,2.524,2.688,4.314,2.071c0.869-0.303,1.848-1.286,2.762-1.896
		c1.928-1.297,3.609-2.777,5.008-4.402c0.768-0.898,1.336-1.955,2.241-2.502c-0.015,3.25,0.304,5.586,1.468,7.68
		c0.754,1.359,2.106,2.525,3.971,2.417c4.648-0.269,8.933-4.315,11.168-8.146c0.588-1.008,1.062-2.088,1.381-3.211
		c0.273-0.957,0.826-2.883,0.826-2.883s1.488-1.259,2.158-1.812c0.805-0.668,1.771-1.467,2.354-1.87
		c-0.604,2.136-1.248,5.007-1.232,7.825c0.014,2.604,0.268,5.703,1.295,7.336c1.92,3.057,6.709,0.591,8.457-0.861
		c1.188-0.984,2.121-2.225,3.192-3.367c1.633-1.754,3.063-3.609,4.574-5.265c0.51-0.554,1.05-1.336,1.639-1.468
		c-0.302,1.783-0.755,3.524-0.862,5.266c-0.094,1.547,0.375,4.164,1.037,5.352c1.495,2.684,5.989,1.395,8.11-0.086
		c0.949-0.671,1.741-1.627,2.503-2.332c0.892-0.826,1.517-1.854,2.589-2.328c0.92,3.859,3.027,6.602,7.076,6.729
		c3.898,0.131,6.538-2.517,8.631-4.66c1.791-1.834,3.396-3.366,4.572-5.437c0.396-0.691,0.902-1.943,1.39-2.676
		c0.784-0.683,0.906-0.818,1.546-1.381c0.167-0.147,0.333-0.296,0.496-0.447c1.516-1.403,2.733-2.979,3.514-4.756
		c0.098-0.226,0.188-0.451,0.27-0.67c1.459-2.856,1.562-6.588-0.135-9.442c-1.571-2.646-5.799-4.649-8.77-3.468
		c1.595-0.635,3.949,0.428,5.302,1.244c1.692,1.024,3.231,3.153,3.686,5.058c0.539,2.259-0.161,4.565-1.488,6.415
		c-0.555,0.771-1.144,1.537-1.826,2.201c-0.262,0.252-1.741,1.139-1.741,1.461c0-0.819,0-1.637-0.037-2.498
		c0.005-0.157,0.009-0.312,0.01-0.465c0.025-2.77-0.534-5.111-1.953-6.715c-1.589-1.791-4.608-2.675-7.854-2.158
		c-2.121,0.339-3.774,2.051-5.093,3.367c-3.033,3.034-5.623,6.465-6.644,11.217c-0.201,0.938-0.151,2.115-0.519,3.107
		c-0.244,0.669-0.848,1.823-1.43,2.527c-1.172,1.406-3.686,4.65-5.9,4.369c-1.943-0.247-0.862-4.184-0.541-5.187
		c1.535-4.782,3.371-8.684,6.316-12.842c0.598-0.843,1.173-1.669,1.728-2.504c0.546-0.812,1.452-1.46,1.554-2.503
		c-1.409,0.172-2.684,1.474-4.315,2.244c-1.547,0.728-3.438,1.424-5.178,1.641c-1.417,0.178-3.345,0.171-3.971-0.691
		c-0.345-0.48-0.517-0.855-0.688-1.64c-0.793,1.72,0.51,3.415,1.295,4.399c0.92,1.158-3.383,5.606-4.103,6.41
		c-2.365,2.64-5.063,4.942-8.039,6.867c-1.199,0.776-4.198,3.032-4.431,0.188c-0.114-1.417,0.382-3.28,0.604-4.834
		c0.468-3.294,1.015-6.271,1.812-9.061c0.434-1.512,1.056-2.908,1.469-3.971c0.467-0.754,1.531-1.382,2.33-2.158
		c2.322-2.271,4.501-4.615,6.386-7.076c1.835-2.395,3.817-5.19,5.522-7.939c0.453-0.725,1.728-2.761,1.728-2.761
		c27.685-1.974,60.938-5.668,76.717-31.268c2.72-4.074,5.063-8.463,6.483-13.167c0.71-2.356,1.204-4.777,1.227-7.239
		C477.789,187.971,476.406,186.124,476.442,185.893z M298.087,268.518c0.074-0.145,0.147-0.293,0.222-0.443
		c0.871-1.78,1.76-3.93,3.467-4.999c1.197-0.749,3.257-1.104,3.813,0.507c0.67,1.938-0.409,4.136-1.344,5.791
		c-0.917,1.626-2.103,3.457-3.767,4.402c-1.114,0.635-3.237,1.315-4.438,0.469C296.393,272.229,297.161,270.329,298.087,268.518z
		 M361.001,277.577c-0.521,0.854-1.076,1.784-1.709,2.659c-0.997,1.382-2.188,2.625-3.755,3.205
		c-4.753,1.764-5.113-5.104-3.969-8.717h0.258c0.339,0.532,0.433,1.058,0.777,1.469c2.1,2.502,6.811,0.979,9.146-0.346
		C361.541,275.967,361.18,277.289,361.001,277.577z M363.391,271.618c-2.193,0.434-5.156,1.61-7.508,0.778
		c-1.554-0.547-2.402-2.741-1.727-4.834c0.525-1.641,2.531-4.279,3.71-5.265c0.95-0.79,2.61-1.813,4.315-1.036
		C365.029,262.559,364.247,268.557,363.391,271.618z M411.077,265.812c1.534-1.875,3.704-4.024,7.025-4.293
		c2.72-0.222,3.582,2.354,3.625,5.438c0.021,1.521-0.461,4.444-0.775,4.833c-0.575,0.576-2.85,0.793-3.883,0.861
		c-2.252,0.16-4.188-0.394-5.523-1.293c-0.698-0.467-1.942-1.604-1.985-2.157C409.495,268.396,410.42,266.617,411.077,265.812z
		 M407.748,273.775c1.885,2.727,6.55,4.733,11.066,3.218c-0.417,1.286-1.868,2.321-2.954,3.256c-1.791,1.539-4.137,2.704-7.51,2.762
		C406.051,281.645,406.814,276.057,407.748,273.775z M380.562,257.121c-0.539,0.561-1.076,1.271-1.812,1.554
		c1.862-5.501,3.647-10.935,5.992-15.955c2.202-0.021,4.157-0.157,6.176-0.27C387.885,247.599,384.648,252.871,380.562,257.121z
		 M392.646,238.911c-2.08,0.191-4.328,0.348-6.555,0.348c4.223-11.053,9.186-21.792,14.405-31.845
		c1.777-0.942,1.18,2.797,1.037,3.882c-1.043,7.811-3.15,14.154-5.611,20.453C394.911,234.345,393.969,236.876,392.646,238.911z
		 M297.65,306.765c-1.416-2.745-3.303-5.325-5.696-7.764c-2.231-2.274-4.731-4.243-7.497-5.853c0.113-0.907,0.22-1.816,0.318-2.727
		c2.117-19.607,2.937-39.38,4.117-59.058c0.33-5.521,0.668-11.042,1.025-16.563c0.536-8.293,1.076-16.598,1.939-24.865
		c0.47-4.483,1.033-8.954,1.742-13.408c0.1-0.621,0.26-1.619,0.26-1.619c15.056-5.791,29.892-11.941,45.267-16.882
		c9.052-2.906,18.187-5.576,27.412-7.88c14.678-3.664,29.651-6.535,44.691-8.209c6.183-0.688,12.481-1.311,18.707-1.058
		c10.357,0.42,21.439,3.6,28.94,11.252c4.771,4.869,7.938,11.427,9.11,18.115c0.971,5.552,0.714,11.305,0.09,16.884
		c-0.611,5.45-1.136,12.113-3.185,17.235c5.542-13.855,9.7-29.56,4.374-44.113c-1.017-2.796-2.31-5.472-3.883-7.976
		c-3.146-5.008-7.418-9.338-12.96-12.571c-1.848-1.154-3.695-2.193-5.56-3.116c-5.593-2.769-11.338-4.493-17.694-5.155
		c-2.77-0.404-5.549-0.678-8.333-0.839c-11.138-0.638-22.359,0.566-33.327,2.722c-16.199,3.181-32.076,7.793-47.758,12.917
		c-8.78,2.87-17.502,5.914-26.225,8.95c-7.002,2.447-13.983,4.957-20.946,7.515c-10.371,3.81-20.539,8.141-30.847,12.113
		c-7.857,3.029-15.904,5.529-24.02,7.825c-2.367,0.669-4.736,1.331-7.104,1.998c-2.484,0.702-4.979,1.37-7.5,1.927
		c-2.116,0.468-4.333,0.877-6.593,1.186c-7.527,1.027-16.815,1.709-23.721-2.121c-5.099-2.829-9.244-7.725-9.6-13.761
		c-0.483-8.218,7.595-14.113,13.36-18.579c2.333-1.808,4.798-3.48,7.378-4.912c2.68-1.488,5.452-2.917,8.257-4.156
		c2.406-1.061,4.862-2.023,7.353-2.893c21.481-7.815,58.359-10.169,66.654,16.98c0.027,0.754,0.035,1.507,0.062,2.26
		c0.538-2.367,0.287-4.937-0.207-7.283c-10.013-23.497-42.85-21.762-63.228-14.746c-2.319,0.744-4.625,1.567-6.892,2.467
		c-11.334,4.493-21.719,10.873-29.974,19.733c-1.516,1.886-2.84,4.089-3.849,6.429c-1.009,2.34-1.705,4.815-1.999,7.242
		c-0.437,3.598,0.613,7.611,2.892,10.41c3.553,4.362,8.567,7.492,14.064,8.694c3.947,0.862,7.989,1.212,12.058,1.204
		c4.067-0.008,8.161-0.374,12.213-0.941c4.051-0.568,8.061-1.337,11.96-2.153c3.376-0.706,6.733-1.503,10.073-2.362
		c4.187-1.077,8.358-2.207,12.534-3.327c6.395-1.718,12.632-3.83,18.932-5.846c0.862-0.277,8.514-2.244,9.243-2.512
		c-0.149,4.295-0.336,8.716-0.677,12.999c-1.631,20.601-4.17,41.623-7.06,62.167c-1.688,12.01-3.014,24.466-4.646,36.404
		c-6.178-0.52-9.439,0.492-12.182,2.416c-1.992,1.532-3.798,3.402-5.328,5.496c-1.529,2.096-2.785,4.414-3.674,6.846
		c-3.396,9.81,1.812,23.631,11.659,26.896c1.972,0.653,4.125,0.884,6.435,0.576c3.695-0.923,4.619-3.694,6.732-6.907
		c1.484-2.186,2.682-4.621,3.67-7.171c0.988-2.548,1.77-5.209,2.42-7.84c0.652-2.632,1.176-5.234,1.653-7.667
		c0.256-1.301,0.673-3.632,0.883-4.938c0.854,0.471,1.616,1.385,2.425,2.153c5.274,5.021,9.272,10.711,9.687,18.166
		c0.944,17.062-14.454,25.157-29.373,25.323c-4.158,0.046-8.422-0.205-12.548-0.737c-2.733-0.188-5.443-0.467-8.135-0.821
		c-27.61-3.654-55.05-13.723-79.491-26.935c-15.243-8.237-28.391-19.016-40.749-31.085c-3.762-3.673-7.458-7.412-11.08-11.227
		c2.403-2.346,4.953-4.534,7.397-6.836c3.826-3.604,7.25-7.604,10.725-11.537c2.999-3.395,6.059-6.732,8.445-10.603
		c4.119-6.678,7.528-14.045,10.114-21.442c2.586-7.398,4.435-15.16,4.292-23.04c-0.078-4.293-0.482-8.925-1.526-13.101
		c0.102,0.407-0.146,1.148-0.2,1.57c-0.067,0.524-0.134,1.047-0.202,1.57c-0.136,1.046-0.275,2.093-0.421,3.138
		c-0.291,2.088-0.607,4.174-0.961,6.252c-0.999,5.872-2.306,11.749-3.856,17.521c-0.637,2.369-1.325,4.724-2.092,7.054
		c-2.434,7.402-5.967,14.273-10.536,20.586c-2.976,4.109-6.341,7.947-9.912,11.55c-0.637,0.644-1.283,1.276-1.938,1.901
		c-2.726,2.598-5.59,5.16-8.604,7.422c-0.68,0.543-1.371,1.074-2.051,1.615c-0.652,0.508-2.192,1.441-2.943,1.817
		c-0.616-0.668-1.222-1.332-1.821-1.989c0.136-0.697,0.446-2.271,0.622-3.104c4.831-22.96,11.805-44.951,14.127-68.431
		c0.684-6.909,1.039-13.86,0.797-20.804c-0.048-2.144-0.139-4.303-0.275-6.484c-0.038-0.604-7.947,5.538-8.593,6.471
		c-2.312,3.334-3.498,7.46-4.396,11.361c-2.502,10.87-4.432,21.875-5.614,32.968c-1.759,16.52-2.977,39.223-3.037,39.738
		c-0.04,0.345-0.13,0.608-0.225,0.834c-7.753-8.99-14.726-18.27-21.144-28.265c-4.749-7.396-9.436-15.998-17.005-20.895
		c-4.196-2.713-9.84-4.364-14.847-4.49c-1.546-0.04-3.119,0.131-4.622,0.502c-4.939,1.22-9.571,3.786-12.912,7.666
		c-0.893,1.038-1.732,2.16-2.464,3.317c-1.454,2.301-2.04,3.942-2.577,6.615c-0.286,1.423-0.062,2.353-0.538,3.734
		c2.001-5.119,2.886-8.477,6.82-12.071c3.876-3.544,9.419-6.076,14.754-5.318c3.673,0.522,6.758,2.243,9.523,4.665
		c7.504,6.572,12.825,15.122,17.725,23.705c6.888,12.065,24.265,34.386,24.351,34.386c-0.066-0.067-2.092,1.335-2.22,1.403
		c-4.276,2.319-9.087,3.193-13.914,3.199c-5.414,0.008-10.945-0.307-16.252-1.41c-1.478-0.308-2.944-0.682-4.383-1.135
		c-2.844-0.896-5.563-2.094-8.152-3.535c-18.323-9.982-27.984-33.229-20.324-53.203c-10.739,17.396-5.388,39.525,8.692,52.125
		c1.733,1.631,3.624,3.061,5.63,4.313c6.019,3.765,13.067,5.95,19.963,7.245c2.649,0.496,5.335,0.838,8.02,1.07
		c4.966,0.435,9.929,0.472,14.877-0.188c0.681-0.092,10.061-1.729,10.054-1.755c0.298,1.197,0.733,4.279,0.837,5.32
		c0.39,3.914,1.073,7.252,1.281,10.996c0.108,1.979-0.051,4.095,0.087,6.129c0.042,0.619,0.215,1.25,0.258,1.897
		c0.136,2.021,0,4.409,0.259,6.474c0.072,0.583,0.374,1.157,0.432,1.812c0.151,1.718-0.065,3.553,0.345,5.092
		c0.187,0.696,0.669,1.225,0.604,1.898c0.863,0.641,1.798,1.354,3.107,1.296c1.582-0.073,3.401-1.828,3.365-3.281
		c-0.015-0.689-0.705-1.28-0.777-1.811c-0.05-0.368,0.022-1.311,0.087-1.728c0.058-0.411,0.316-0.949,0.431-1.468
		c0.123-0.555,0.101-1.208,0.259-1.639c0.287-0.799,1.913-2.556,1.898-3.367c-0.006-0.654-0.805-1.633-1.293-1.896
		c-1.475-0.807-3.409-0.481-4.574-1.123c-0.25-1.434-0.107-2.894-0.162-4.338c-0.032-0.871-0.326-1.711-0.407-2.578
		c-0.103-1.094,0.003-2.195-0.083-3.289c-0.169-2.139-0.352-4.226-0.404-6.369c-0.039-1.639-0.547-6.227-0.702-7.76
		c1.473,1.824,4.875,5.58,6.428,7.09c23.26,22.591,51.547,37.702,82.174,47.798c10.372,3.419,20.848,6.55,31.477,9.062
		c7.158,1.694,14.535,3.126,21.97,3.962c2.478,0.279,4.96,0.489,7.435,0.614c17.148,0.862,44.615-2.964,45.521-25.208
		C301.182,316.969,300.148,311.609,297.65,306.765z M265.625,322.144c-0.441,1.795-1.225,4.321-3.382,4.558
		c-4.193,0.455-7.646-5.033-8.774-8.301c-1.419-4.108-1.324-8.818,0.025-12.938c0.715-2.178,1.791-4.405,3.053-6.321
		c0.95-1.444,2.08-2.726,3.391-3.701c0.099-0.073,0.213-0.139,0.316-0.209c2.43-1.858,5.288-2.949,8.359-2.949
		c0.882,0,1.729,0.135,2.562,0.346C269.752,302.521,268.042,312.371,265.625,322.144z"/>
</g>
</svg>
