<?xml version="1.0" encoding="utf-8"?>
<!-- Generator: Adobe Illustrator 16.0.0, SVG Export Plug-In . SVG Version: 6.00 Build 0)  -->
<!DOCTYPE svg PUBLIC "-//W3C//DTD SVG 1.1//EN" "http://www.w3.org/Graphics/SVG/1.1/DTD/svg11.dtd">
<svg version="1.1" id="Layer_1" xmlns="http://www.w3.org/2000/svg" xmlns:xlink="http://www.w3.org/1999/xlink" x="0px" y="0px"
	 width="500px" height="500px" viewBox="0 0 500 500" enable-background="new 0 0 500 500" xml:space="preserve">
<g>
	<path fill="#010101" d="M353.681,311.144l-23.543-20.745l-47.44-41.427l-11.703-10.221v-36.312l59.144-20.243v-102.7
		l-87.591,29.975v104.439l-17.368-15.167l-11.696-10.215v-69.099l-28.452,9.711v34.54l-16.706-14.591l-11.696-10.214l-28.45-24.659
		v34.398v0.749v238.886l201.959-68.837L353.681,311.144z M301.634,103.563l0.008,16.023l0.042,57.985l-18.986,6.479l-11.662,3.979
		l-0.105-73.956L301.634,103.563z M156.629,153.333l11.696,10.216l16.706,14.594v138.845l28.452-9.707V202.993l11.697,10.216
		l17.368,15.168v68.95l28.448-9.739v-34.364l11.703,10.216l35.529,31.036l-161.598,55.31V153.333z"/>
	<polygon fill="none" points="282.697,263.439 282.697,297.808 254.245,307.544 242.546,297.327 242.546,228.377 225.178,213.209 
		225.178,317.471 196.732,327.202 185.03,316.987 185.03,178.144 168.325,163.548 168.325,345.78 156.629,349.785 318.226,294.476 	
		"/>
	<polygon fill="none" points="282.697,184.053 301.684,177.573 301.642,119.587 282.697,126.072 	"/>
	<path fill="#29ABE2" d="M168.325,149.088l-11.695-10.214L168.325,149.088z"/>
	
		<linearGradient id="SVGID_1_" gradientUnits="userSpaceOnUse" x1="250.187" y1="229.5488" x2="334.0711" y2="-0.9209" gradientTransform="matrix(1 0 0 -1 -56 356)">
		<stop  offset="0" style="stop-color:#264188"/>
		<stop  offset="0.0845" style="stop-color:#1D5EA5"/>
		<stop  offset="0.2028" style="stop-color:#1680C4"/>
		<stop  offset="0.3148" style="stop-color:#1B98D5"/>
		<stop  offset="0.4169" style="stop-color:#25A6DF"/>
		<stop  offset="0.5" style="stop-color:#29ABE2"/>
		<stop  offset="1" style="stop-color:#17BECF"/>
	</linearGradient>
	<path fill="url(#SVGID_1_)" d="M271.035,188.032l-0.105-73.956l30.704-10.512l0.008,16.024l-18.944,6.483v57.981L271.035,188.032z
		 M353.681,311.144l-23.543,8.267l-201.959,68.837l15.039,12.863l198.92-68.079l26.3-9.001L353.681,311.144z M282.697,297.808
		v-48.836v-6.485v-29.473l59.439-20.341l0.017-102.839l-12.016-10.338v102.7l-59.144,20.243v12.711v23.601v48.836l-28.448,9.741
		l11.699,10.215L282.697,297.808z M225.178,317.471V198.741v-3.621v-65.444l-11.696-10.248v66.429v2.669V307.28l-28.452,9.707
		l11.701,10.215L225.178,317.471z M168.325,163.548l-11.695-10.216v196.453l11.696-4.005L168.325,163.548L168.325,163.548z"/>
</g>
</svg>
