<?xml version="1.0" encoding="utf-8"?>
<!-- Generator: Adobe Illustrator 16.0.0, SVG Export Plug-In . SVG Version: 6.00 Build 0)  -->
<!DOCTYPE svg PUBLIC "-//W3C//DTD SVG 1.1//EN" "http://www.w3.org/Graphics/SVG/1.1/DTD/svg11.dtd">
<svg version="1.1" id="Layer_1" xmlns="http://www.w3.org/2000/svg" xmlns:xlink="http://www.w3.org/1999/xlink" x="0px" y="0px"
	 width="500px" height="500px" viewBox="0 0 500 500" enable-background="new 0 0 500 500" xml:space="preserve">
<path fill="#0E3D69" d="M180.207,276.702"/>
<g>
	<polygon fill="#0E3D69" points="205.63,183.768 106.644,282.765 106.644,325.103 196.248,235.624 196.248,282.299 196.248,324.637 
		285.987,235.02 285.987,324.637 295.228,324.637 295.228,183.25 205.63,272.923 	"/>
	<path fill="#0E3D69" d="M359.63,282.299v42.338l36.08-36.031h53.657v36.031h9.165l0.209-141.387L359.63,282.299z M449.367,273.607
		H410.73l38.637-38.586V273.607z"/>
	<g>
		<path fill="#0E3D69" d="M106.948,329.646h6.08l8.797,17.387l8.665-17.387h5.946v25.443h-6.232v-16.57l-8.303,16.57h-2.414
			l-8.589-16.778v16.778h-3.952V329.646z"/>
		<path fill="#0E3D69" d="M141.953,337.278h4.362v17.811h-4.362V337.278z"/>
		<path fill="#0E3D69" d="M150.864,337.278h6.464c1.667,0,3.197,0.195,4.589,0.585c1.392,0.39,2.588,0.956,3.591,1.702
			c1.002,0.746,1.783,1.659,2.341,2.746c0.558,1.087,0.838,2.327,0.838,3.72c0,1.247-0.235,2.425-0.705,3.523
			c-0.47,1.101-1.159,2.061-2.069,2.881c-0.908,0.818-2.025,1.467-3.351,1.941c-1.325,0.475-2.839,0.712-4.542,0.712h-7.156V337.278
			z M155.24,353.267h2.315c0.86,0,1.669-0.159,2.427-0.474c0.758-0.313,1.421-0.776,1.989-1.391c0.567-0.609,1.015-1.365,1.343-2.26
			c0.327-0.895,0.492-1.925,0.492-3.088c0-0.992-0.155-1.914-0.465-2.765c-0.311-0.852-0.743-1.589-1.297-2.215
			c-0.554-0.624-1.212-1.112-1.975-1.463c-0.762-0.351-1.601-0.525-2.514-0.525h-2.315V353.267z"/>
		<path fill="#0E3D69" d="M186.826,329.646l8.417,17.575l7.791-17.575h4.009l-11.438,25.841h-2.926l-12.294-25.841H186.826z"/>
		<path fill="#0E3D69" d="M217.63,336.893l8.339,18.196h-4.456l-2.234-4.87h-6.917l-2.327,4.87h-2.98l8.686-18.196H217.63z
			 M213.188,348.557h5.359l-2.646-5.745L213.188,348.557z"/>
		<path fill="#0E3D69" d="M228.165,337.278h4.375v15.988h9.084v1.822h-13.459V337.278z"/>
		<path fill="#0E3D69" d="M244.431,337.278h4.375v15.988h9.084v1.822h-13.459V337.278z"/>
		<path fill="#0E3D69" d="M273.999,337.278v1.517h-8.926v5.878h7.408v1.53h-7.408v7.063h8.926v1.822h-13.302v-17.811H273.999z"/>
		<path fill="#0E3D69" d="M280.009,337.278l5.866,8.02l5.492-8.02h2.941l-6.931,10.108v7.702h-4.375v-7.437l-7.569-10.374H280.009z"
			/>
		<path fill="#0E3D69" d="M319.693,329.093l11.914,25.996h-6.365l-3.191-6.956h-9.881l-3.326,6.956h-4.257l12.408-25.996H319.693z
			 M313.349,345.759h7.657l-3.782-8.208L313.349,345.759z"/>
		<path fill="#0E3D69" d="M352.934,360.449c-0.967,0-1.921-0.081-2.859-0.24c-0.94-0.159-1.848-0.378-2.721-0.653
			c-0.873-0.274-1.701-0.594-2.488-0.955c-0.783-0.364-1.506-0.749-2.167-1.15c-0.66-0.405-1.25-0.817-1.769-1.238
			c-0.52-0.422-0.943-0.826-1.271-1.217c-1.001-0.294-1.918-0.721-2.746-1.285c-0.83-0.562-1.543-1.229-2.142-2.001
			c-0.598-0.771-1.064-1.635-1.396-2.594c-0.334-0.955-0.498-1.976-0.498-3.061c0-1.372,0.254-2.622,0.765-3.749
			c0.509-1.127,1.215-2.091,2.115-2.893c0.898-0.802,1.963-1.425,3.191-1.862c1.228-0.439,2.559-0.658,3.997-0.658
			c1.427,0,2.755,0.231,3.983,0.691c1.228,0.462,2.294,1.098,3.198,1.916c0.904,0.816,1.614,1.784,2.127,2.904
			c0.516,1.124,0.771,2.34,0.771,3.65c0,1.137-0.167,2.193-0.505,3.167c-0.336,0.976-0.813,1.852-1.429,2.629
			c-0.617,0.773-1.357,1.44-2.223,1.994c-0.863,0.555-1.822,0.97-2.879,1.244c0.23,0.522,0.573,1.036,1.024,1.541
			c0.452,0.506,0.982,0.96,1.589,1.356c0.607,0.4,1.282,0.725,2.021,0.971c0.741,0.25,1.512,0.374,2.309,0.374V360.449z
			 M337.61,346.055c0,1.137,0.113,2.187,0.34,3.147c0.227,0.963,0.561,1.797,1.004,2.5c0.444,0.707,0.994,1.258,1.649,1.658
			c0.656,0.397,1.414,0.603,2.274,0.61c0.86-0.088,1.625-0.336,2.295-0.746c0.669-0.406,1.234-0.95,1.694-1.635
			c0.462-0.683,0.812-1.489,1.052-2.42c0.24-0.931,0.359-1.97,0.359-3.115c0-1.114-0.118-2.146-0.353-3.084
			c-0.236-0.939-0.578-1.746-1.03-2.42c-0.453-0.674-1.01-1.199-1.67-1.576c-0.661-0.377-1.42-0.566-2.28-0.566
			c-0.869,0-1.637,0.189-2.301,0.566c-0.667,0.377-1.223,0.902-1.67,1.576c-0.448,0.674-0.787,1.48-1.018,2.42
			C337.727,343.909,337.61,344.94,337.61,346.055z"/>
		<path fill="#0E3D69" d="M356.459,337.278h4.376v11.452c0,0.69,0.105,1.339,0.319,1.942c0.213,0.603,0.519,1.131,0.918,1.581
			c0.399,0.454,0.879,0.81,1.443,1.071c0.563,0.263,1.198,0.393,1.908,0.393c0.7,0,1.331-0.13,1.896-0.393
			c0.562-0.262,1.04-0.617,1.435-1.071c0.395-0.45,0.699-0.979,0.912-1.581c0.213-0.604,0.319-1.252,0.319-1.942v-11.452h2.74
			v11.452c0,0.922-0.156,1.79-0.468,2.607c-0.309,0.815-0.796,1.532-1.461,2.147s-1.521,1.104-2.562,1.464
			c-1.041,0.357-2.293,0.537-3.756,0.537c-1.304,0-2.457-0.18-3.457-0.537c-1.004-0.36-1.842-0.849-2.515-1.471
			c-0.675-0.621-1.185-1.342-1.53-2.16c-0.346-0.823-0.519-1.697-0.519-2.627V337.278z"/>
		<path fill="#0E3D69" d="M385.508,336.893l8.338,18.196h-4.454l-2.235-4.87h-6.915l-2.328,4.87h-2.98l8.686-18.196H385.508z
			 M381.064,348.557h5.361l-2.647-5.745L381.064,348.557z"/>
		<path fill="#0E3D69" d="M411.483,337.278v1.517h-6.157v16.294h-4.364v-16.294h-6.172v-1.517H411.483z"/>
		<path fill="#0E3D69" d="M414.808,337.278h4.364v17.811h-4.364V337.278z"/>
		<path fill="#0E3D69" d="M427.829,346.176c0,1.153,0.176,2.173,0.525,3.06c0.352,0.889,0.813,1.629,1.391,2.229
			c0.576,0.598,1.242,1.049,1.993,1.356c0.755,0.306,1.54,0.457,2.356,0.457c0.629,0,1.212-0.105,1.748-0.318
			c0.537-0.214,1.038-0.502,1.503-0.873c0.467-0.367,0.904-0.79,1.316-1.27c0.414-0.479,0.806-0.984,1.179-1.515l1.821,1.33
			c-0.39,0.638-0.863,1.249-1.417,1.835c-0.554,0.585-1.177,1.101-1.868,1.55c-0.691,0.448-1.445,0.805-2.261,1.071
			c-0.816,0.265-1.68,0.397-2.594,0.397c-1.534,0-2.943-0.224-4.23-0.67c-1.285-0.449-2.398-1.079-3.339-1.89
			c-0.939-0.812-1.67-1.789-2.193-2.933s-0.784-2.416-0.784-3.818c0-1.356,0.249-2.604,0.752-3.745
			c0.499-1.137,1.204-2.121,2.106-2.951c0.904-0.828,1.988-1.474,3.254-1.935c1.262-0.46,2.661-0.69,4.195-0.69
			c1.021,0,1.957,0.117,2.812,0.356c0.855,0.24,1.632,0.572,2.327,0.999c0.696,0.424,1.317,0.934,1.862,1.521
			c0.546,0.592,1.026,1.236,1.443,1.936l-1.849,1.289c-0.374-0.529-0.778-1.034-1.218-1.508c-0.438-0.476-0.908-0.888-1.408-1.238
			c-0.502-0.351-1.027-0.627-1.577-0.835c-0.55-0.21-1.126-0.315-1.729-0.315c-0.815,0-1.593,0.152-2.334,0.46
			c-0.74,0.307-1.39,0.76-1.948,1.362c-0.559,0.604-1.004,1.35-1.336,2.236C427.996,344.004,427.829,345.024,427.829,346.176z"/>
		<path fill="#0E3D69" d="M451.398,355.368c-1.063,0-1.997-0.125-2.8-0.373c-0.803-0.247-1.483-0.594-2.041-1.037
			c-0.559-0.443-1.004-0.971-1.338-1.584c-0.332-0.61-0.56-1.277-0.684-1.995h3.031c0.107,0.443,0.26,0.855,0.46,1.238
			c0.198,0.38,0.453,0.713,0.764,0.997c0.312,0.285,0.678,0.508,1.1,0.672c0.42,0.164,0.909,0.245,1.469,0.245
			c0.371,0,0.739-0.039,1.104-0.119c0.362-0.079,0.688-0.209,0.976-0.386c0.289-0.177,0.521-0.407,0.699-0.691
			s0.266-0.636,0.266-1.052c0-0.532-0.135-1-0.406-1.409c-0.27-0.407-0.628-0.78-1.076-1.117s-0.956-0.65-1.523-0.945
			c-0.566-0.292-1.151-0.584-1.749-0.878c-0.599-0.292-1.182-0.599-1.748-0.924c-0.567-0.323-1.076-0.685-1.524-1.085
			c-0.447-0.396-0.807-0.845-1.077-1.343c-0.271-0.496-0.405-1.072-0.405-1.729c0-0.709,0.156-1.366,0.466-1.97
			c0.309-0.6,0.76-1.124,1.344-1.568c0.585-0.441,1.303-0.789,2.154-1.045c0.852-0.252,1.817-0.378,2.9-0.378
			c0.895,0,1.705,0.126,2.433,0.373c0.727,0.248,1.368,0.588,1.922,1.021c0.555,0.438,1.023,0.945,1.403,1.526
			c0.381,0.578,0.674,1.206,0.879,1.881h-2.754c-0.159-0.424-0.344-0.829-0.552-1.209c-0.208-0.383-0.468-0.718-0.777-1.014
			c-0.312-0.291-0.685-0.522-1.118-0.69c-0.435-0.167-0.953-0.253-1.556-0.253c-0.568,0-1.046,0.073-1.438,0.221
			c-0.39,0.146-0.705,0.333-0.944,0.563s-0.411,0.489-0.519,0.773c-0.106,0.283-0.158,0.561-0.158,0.838
			c0,0.479,0.14,0.91,0.418,1.295c0.279,0.388,0.649,0.745,1.111,1.079c0.461,0.33,0.983,0.649,1.569,0.951
			c0.584,0.301,1.186,0.604,1.802,0.91s1.217,0.626,1.802,0.966c0.585,0.335,1.108,0.705,1.57,1.109
			c0.461,0.402,0.831,0.848,1.11,1.337c0.279,0.488,0.419,1.042,0.419,1.662c0,0.719-0.15,1.391-0.451,2.016
			c-0.303,0.626-0.748,1.167-1.337,1.629c-0.591,0.46-1.319,0.823-2.189,1.091C453.536,355.233,452.533,355.368,451.398,355.368z"/>
	</g>
	<polygon fill="#0E3D69" points="314.191,272.918 314.191,128.304 304.809,128.304 304.809,324.637 458.858,170.72 458.858,128.304 
			"/>
	<g>
		<g>
			<path fill="#98C93C" d="M93.027,239.033c0,0-8.449,0.126-8.35-4.997c0.073-3.737,1.044-7.452,3.734-9.221
				c6.069-3.984,44.149-1.884,44.733-0.132c1.124,3.376-62.564,55.057-65.563,51.308c-3.001-3.746-6.428-108.625,8.25-117.747
				c11.488-7.138,108.935-8.999,113.058-5.624c4.125,3.375-20.389,18.766-24.421,19.122c-3.912,0.343-10.817-6.704-15.581-9.915
				c-4.761-3.213-31.435-4.288-40.795-2.535c-4.642,0.87-16.319,6.135-16.319,6.135c-2.124,0.685-17.374,4.397-17.113,5.903
				c0.671,3.842,3.799,7.226,5.288,10.819c0.463,1.107,0.887,3.028,1.579,4.171l44.339-4.888l3.904,2.67l-23.718,11.823
				l-22.146,2.312c0,0-2.841,4.139-2.158,5.247c0.409,0.652,2.825,0.652,3.426,0.704c2.431,0.219,4.891,0.248,7.332,0.306
				c5.75,0.135,11.514,0.098,17.251-0.383c4.257-0.358,8.496-1.036,12.663-1.98c5.843-1.329,11.678-2.735,17.545-3.957
				c3.692-0.814,7.639-1.484,11.431-1.393c5.038,0.123,9.848-0.02,14.894-0.739c6.793-0.969,12.934-3.072,17.983-7.775
				c3.707-3.455,7.544-6.789,11.295-10.198c5.073-4.618,10.084-9.322,15.072-14.036c4.903-4.63,9.81-9.255,14.702-13.891
				c3.508-3.323,7.017-6.65,10.435-10.062c0.252-0.253,0.505-0.505,0.752-0.754c1.009-1.02,1.283-3.822,0.57-5.594
				c-0.73-1.808-2.624-2.642-3.96-2.642c-1.336,0-172.265,0-172.265,0c-2.034,0.25-3.748,1.042-5.49,1.852
				c-6.546,3.032-11.556,8.853-11.556,18.177c0,11.812,0,166.873,0,166.873s0.556,4.631,2.893,6.068
				c1.693,1.041,4.681-0.235,7.363-3.068c5.987-6.346,95.775-95.127,106.586-105.819c0.694-0.687-0.444-0.887-0.444-0.887
				s-0.439-0.146-3.728-0.1c-17.325,0.242-71.892,1.222-75.046,4.057c-2.302,2.075-2.569,11.643-0.352,18.209
				C82.514,240.627,93.027,239.033,93.027,239.033z"/>
			<path fill="#173D69" d="M48.098,326.203c-0.86,0-1.637-0.209-2.31-0.62c-2.989-1.839-3.666-6.819-3.733-7.381l-0.013-167.084
				c0-9.005,4.472-16.036,12.59-19.798c1.816-0.843,3.696-1.717,6.024-2.003l172.482-0.013c1.975,0,4.573,1.176,5.616,3.76
				c0.887,2.204,0.711,5.833-0.956,7.519l-0.756,0.758c-3.507,3.5-7.208,7.005-10.473,10.099c-3.467,3.286-6.944,6.567-10.419,9.848
				l-4.283,4.044c-4.473,4.228-9.767,9.206-15.096,14.058c-1.481,1.346-2.975,2.68-4.469,4.014
				c-2.287,2.042-4.573,4.083-6.812,6.171c-4.786,4.458-10.807,7.075-18.947,8.237c-3.811,0.543-7.642,0.796-12.057,0.796
				c-1.038,0-2.081-0.015-3.133-0.039l-0.662-0.008c-3.701,0-7.471,0.727-10.342,1.359c-4.166,0.868-8.294,1.824-12.421,2.777
				l-5.112,1.177c-4.344,0.984-8.687,1.663-12.91,2.019c-3.67,0.307-7.589,0.456-11.979,0.456c-1.822,0-3.646-0.025-5.464-0.068
				l-1.003-0.023c-2.11-0.046-4.289-0.093-6.447-0.289l-0.327-0.02c-1.977-0.095-3.676-0.275-4.451-1.516
				c-0.327-0.528-1.3-2.107,2.2-7.205c0.295-0.431,0.766-0.711,1.286-0.766l21.824-2.279l20.708-10.322l-0.85-0.581l-43.682,4.815
				c-0.688,0.067-1.363-0.257-1.723-0.851c-0.547-0.905-0.917-2.063-1.244-3.086c-0.157-0.491-0.302-0.956-0.455-1.321
				c-0.534-1.29-1.315-2.576-2.142-3.937c-1.372-2.261-2.792-4.598-3.257-7.264c-0.386-2.231,1.098-3.225,15.616-7.155
				c1.289-0.351,2.276-0.616,2.707-0.755c0.3-0.146,11.743-5.292,16.539-6.19c2.986-0.56,7.772-0.867,13.478-0.867
				c8.023,0,24.335,0.769,28.645,3.678c1.48,0.998,3.098,2.301,4.809,3.68c3.284,2.647,7.371,5.94,9.49,5.94
				c3.706-0.321,21.93-12.394,23.305-16.056c-1.573-0.421-8.475-1.136-25.609-1.136c-35.672,0-78.382,2.807-85.106,6.986
				c-13.041,8.103-10.455,103.478-7.942,114.468c8.019-2.833,54.51-39.461,61.753-48.535c-3.682-0.639-12.95-1.371-22.659-1.371
				c-11.437,0-17.073,1.025-18.535,1.984c-2.448,1.611-2.886,5.554-2.928,7.763c-0.013,0.61,0.164,1.067,0.571,1.482
				c1.314,1.34,4.184,2.761,5.675,3.128c0.908,0.224,2.072,0.218,2.072,0.218s-3.618,2.218-6.074,2.218l0,0
				c-5.25,0-8.379-1.376-9.299-4.093c-2.255-6.677-2.306-17.267,0.849-20.11c0.965-0.869,3.9-3.507,76.217-4.516l1.206-0.01
				c2.039,0,2.688,0.09,2.964,0.157c0.473,0.103,1.586,0.461,1.943,1.601c0.117,0.377,0.289,1.355-0.66,2.294l-0.87,0.861
				c-30.021,29.687-100.414,99.339-105.674,104.917C52.982,324.752,50.328,326.203,48.098,326.203z M60.874,132.876
				c-1.55,0.203-3.099,0.923-4.738,1.685c-4.801,2.225-10.522,6.901-10.522,16.557v166.873c0.182,1.355,0.948,3.872,2.045,4.548
				c0.576,0.353,2.703-0.214,5.128-2.774c5.225-5.542,73.868-73.465,104.542-103.8l-0.806,0.006
				c-42.051,0.587-71.091,2.031-73.983,3.68c-1.211,1.106-1.989,9.588,0.252,16.229c0.078,0.231,0.288,0.473,0.648,0.698
				c-0.379-0.782-0.566-1.652-0.548-2.577c0.099-5.098,1.667-8.791,4.538-10.678c2.599-1.708,9.494-2.572,20.496-2.572
				c7.754,0,25.901,0.329,26.913,3.368c0.347,1.039-0.193,1.991-0.765,2.784c-5.307,7.364-58.404,51.067-65.961,51.069
				c-1.074,0-1.668-0.544-1.927-0.865c-3.14-3.923-4.992-68.597,0.405-100.075c1.957-11.41,4.67-18.052,8.297-20.306
				c9.148-5.684,62.56-7.523,86.993-7.523c25.655,0,27.459,1.478,28.14,2.034c1.024,0.838,1.367,2.113,0.941,3.495
				c-1.82,5.904-22.058,18.41-26.337,18.788c-3.41,0.3-7.883-3.257-12.171-6.713c-1.65-1.331-3.209-2.587-4.565-3.5
				c-2.505-1.691-14.458-3.068-26.646-3.068c-5.491,0-10.044,0.287-12.821,0.808c-4.379,0.819-15.799,5.956-15.914,6.006
				c-0.642,0.22-1.688,0.504-3.056,0.875c-2.712,0.733-10.436,2.826-12.818,3.997c0.495,1.69,1.511,3.365,2.579,5.122
				c0.86,1.417,1.75,2.881,2.386,4.418c0.186,0.441,0.368,1.006,0.56,1.607c0.141,0.438,0.29,0.907,0.448,1.332l43.065-4.748
				c0.421-0.046,0.852,0.06,1.204,0.301l3.904,2.671c0.523,0.357,0.817,0.964,0.773,1.597c-0.043,0.631-0.418,1.193-0.985,1.476
				l-23.717,11.823c-0.191,0.095-0.398,0.156-0.611,0.177l-21.303,2.226c-0.532,0.848-1.007,1.733-1.275,2.369
				c0.318,0.034,0.717,0.063,1.199,0.086l0.466,0.027c2.046,0.185,4.165,0.232,6.213,0.277l1.01,0.022
				c1.791,0.042,3.586,0.068,5.38,0.068c4.29,0,8.11-0.146,11.68-0.445c4.058-0.341,8.236-0.994,12.418-1.941l5.097-1.173
				c4.152-0.961,8.308-1.923,12.478-2.791c3.027-0.667,7.045-1.438,11.09-1.438l0.747,0.008c1.024,0.025,2.039,0.039,3.047,0.039
				c4.242,0,7.915-0.242,11.552-0.761c7.383-1.052,12.79-3.376,17.017-7.314c2.257-2.104,4.562-4.163,6.869-6.22
				c1.486-1.327,2.972-2.653,4.444-3.992c5.306-4.833,10.584-9.795,15.046-14.012l4.285-4.045c3.474-3.28,6.948-6.559,10.416-9.844
				c3.249-3.078,6.932-6.565,10.401-10.03l0.741-0.744c0.377-0.395,0.705-2.383,0.185-3.675c-0.423-1.048-1.602-1.522-2.303-1.522
				H60.874z"/>
		</g>
		<path fill="#0E3D69" d="M96.209,168.677c0.89-2.854,8.369-7.413,13.26-6.599c4.896,0.816,8.977,3.979,8.085,6.429
			c-1.079,2.971-13.941,9.765-16.716,9.785C96.423,178.333,94.721,173.451,96.209,168.677z"/>
		<path fill="#0E3D69" d="M115.534,167.88c0,0,11.67,1.822,19.43,0.257c9.314-1.878,14.504-4.856,14.504-4.856l5.493,4.344
			c0,0-6.906,4.825-19.823,7.702c-11.337,2.522-24.582-1.332-24.582-1.332L115.534,167.88z"/>
		<polygon fill="#0E3D69" points="106.131,165.945 100.17,161.684 92.46,164.741 100.833,171.247 		"/>
		<path fill="#FFFFFF" d="M99.725,169.029c0.509-1.637,4.795-4.254,7.61-3.783c2.807,0.466,5.045,2.401,4.531,3.803
			c-0.616,1.705-7.92,5.346-9.511,5.361C99.818,174.435,98.871,171.767,99.725,169.029z"/>
		<path fill="#0E3D69" d="M131.05,177.598c-1.142-0.672-10.244,3.902-10.244,3.902l-23.91,1.749c0,0,1.267,4.593,2.316,5.56
			c0.958,0.884,1.802,1.829,3.231,2.982c-1.431-0.249-8.817-3.123-12.429-3.055c-1.667,0.029-5.792,1.203-9.75,2.451
			c-4.616,1.46-9-1.656-9-1.656l3.89,2.91l-3.303-0.109c0,0,4.317,3.134,8.867,1.772c3.351-1.003,6.829-1.902,8.797-2.003
			c2.305-0.117,7.742,1.842,9.418,2.16c-6.006,2.098-17.05,4.725-16.693,4.707c0.617-0.022,24.673-0.51,25.142-0.504
			c2.997,0.034,25.251-6.846,26.901-11.325C135.436,184.017,132.369,178.378,131.05,177.598z M102.267,189.166"/>
		<path fill="#FFFFFF" d="M99.982,185.611c0,0,0.774,5.777,9.112,8.574c-5.981-5.571-5.012-9.058-5.012-9.058L99.982,185.611z"/>
	</g>
</g>
</svg>
