<?xml version="1.0" encoding="utf-8"?>
<!-- Generator: Adobe Illustrator 16.0.0, SVG Export Plug-In . SVG Version: 6.00 Build 0)  -->
<!DOCTYPE svg PUBLIC "-//W3C//DTD SVG 1.1//EN" "http://www.w3.org/Graphics/SVG/1.1/DTD/svg11.dtd">
<svg version="1.1" id="Layer_1" xmlns="http://www.w3.org/2000/svg" xmlns:xlink="http://www.w3.org/1999/xlink" x="0px" y="0px"
	 width="38.091px" height="37.292px" viewBox="75.002 0.22 38.091 37.292" enable-background="new 75.002 0.22 38.091 37.292"
	 xml:space="preserve">
<g>
	<path fill="#1A9DD6" d="M88.94,18.21c0,5.69,0,11.37,0,17.06c-0.28,0.021-0.51-0.199-0.73-0.33c-2.78-1.539-5.65-3.18-8.51-4.799
		c-1.83-1.041-4.33-1.861-4.64-4.361c-0.13-1.02,0-2.139,0-3.219c0-2.181,0-4.07,0-6.351c0-1.54-0.36-3.82,1.06-3.87
		c0.62-0.02,1.18,0.34,1.75,0.61C81.54,14.68,85.4,16.53,88.94,18.21z"/>
	<path fill="#1A9DD6" d="M99.16,35.311c0-5.69,0-11.381,0-17.061c3.35-1.66,7.22-3.51,10.79-5.17c0.8-0.37,2.069-1.25,2.81-0.33
		c0.43,0.55,0.28,2.01,0.28,3.05c0,2.4,0,4.261,0,6.64c0,1.121,0.12,2.281,0,3.301c-0.29,2.43-2.681,3.33-4.521,4.359
		C105.41,31.84,102.17,33.7,99.16,35.311z M107.26,19.35c-1.49,0.589-2.6,3.121-2.4,5.33c0.101,1.11,0.58,2.08,1.471,2.2
		c0.59,0.08,1.16-0.26,1.51-0.569c1-0.9,1.71-2.75,1.71-4.32c0-1.48-0.579-2.83-1.79-2.73C107.58,19.28,107.391,19.3,107.26,19.35z"
		/>
	<path fill="#1A9DD6" d="M97.21,19.35c0,5.85,0,11.7,0,17.55c-1.79,0.89-5.12,0.91-6.23-0.61c0-5.729,0-11.46,0-17.18
		c-0.01-0.07,0.04-0.08,0.04-0.04C92.42,20.109,95.43,19.939,97.21,19.35z"/>
	<polygon fill="#15506A" points="82.26,0.22 82.65,1.01 83.51,1.13 82.89,1.74 83.04,2.61 82.26,2.2 81.49,2.61 81.64,1.74 
		81.01,1.13 81.87,1.01 	"/>
	<polygon fill="#15506A" points="95.16,4.52 95.54,5.31 96.41,5.43 95.79,6.04 95.93,6.91 95.16,6.5 94.38,6.91 94.529,6.04 
		93.9,5.43 94.77,5.31 	"/>
	<polygon fill="#15506A" points="100.49,0.49 100.88,1.28 101.74,1.4 101.109,2.01 101.26,2.88 100.49,2.47 99.71,2.88 99.859,2.01 
		99.23,1.4 100.1,1.28 	"/>
	<polygon fill="#15506A" points="109.62,4.63 110.01,5.41 110.87,5.54 110.25,6.15 110.391,7.01 109.62,6.6 108.85,7.01 
		108.99,6.15 108.37,5.54 109.23,5.41 	"/>
	<polygon fill="#15506A" points="76.97,3.7 77.49,4.76 78.66,4.93 77.82,5.74 78.02,6.91 76.97,6.36 75.93,6.91 76.13,5.74 
		75.29,4.93 76.45,4.76 	"/>
	<polygon fill="#15506A" points="90,1.68 90.52,2.74 91.68,2.91 90.84,3.73 91.04,4.89 90,4.34 88.95,4.89 89.15,3.73 88.31,2.91 
		89.48,2.74 	"/>
	<path fill="#15506A" d="M93.99,15.28c1.17-5.31,4.23-8.74,9.609-9.85c-0.029,0.33,0.051,0.75-0.039,1.02
		c-4.34,1.13-7.181,3.76-8.59,7.82c2.449-3.82,5.979-6.91,11.809-7.49c0,0.54,0,1.09,0,1.63c-4.969,0.42-8.35,2.43-10.59,5.58
		c3.69-2.91,8.621-4.78,15.11-4.76c0,0.34,0,0.68,0,1.02c-4.85,2.05-9.68,4.13-14.579,6.15c1.639,0.84-0.191,1.72-1.711,1.83
		c-1.619,0.12-4.99-0.37-3.42-1.67c-4.97-2.1-9.94-4.2-14.9-6.31c0-0.34,0-0.68,0-1.02c6.46,0,11.42,1.82,15.06,4.76
		c-2.18-3.19-5.6-5.15-10.54-5.58c0-0.54,0-1.09,0-1.63c5.83,0.62,9.32,3.58,11.81,7.53c-1.39-4.11-4.25-6.74-8.629-7.86
		c0-0.34,0-0.68,0-1.02C89.76,6.54,92.81,9.97,93.99,15.28z"/>
	<path fill="#15506A" d="M107.3,27.779c-2.85,0.421-4.75-0.369-4.97-2.77c-0.25-2.89,1.141-5.79,3.22-6.72
		c0.351-0.16,0.97,0,1.63,0.04c0.57,0.03,1.131-0.03,1.471,0.08c0.5,0.17,1,0.73,1.22,1.1c1.31,2.19,0.17,6.01-1.38,7.41
		C108.12,27.25,107.77,27.55,107.3,27.779z M107.221,19.35c-1.381,0.58-2.431,2.81-2.4,4.929c0.02,1.291,0.539,2.771,1.91,2.611
		c1.76-0.211,2.959-3.291,2.81-5.291c-0.09-1.189-0.62-2.479-1.87-2.32C107.52,19.29,107.34,19.3,107.221,19.35z"/>
	<path fill="#F9F6E3" d="M107.67,19.27c1.25-0.16,1.78,1.13,1.87,2.32c0.149,2.01-1.05,5.09-2.81,5.29
		c-1.371,0.16-1.891-1.319-1.91-2.61c-0.03-2.119,1.02-4.35,2.4-4.93C107.34,19.3,107.52,19.29,107.67,19.27z"/>
	<polygon fill="#F9F6E3" points="111.79,13.63 111.79,15.84 109.54,16.98 109.54,14.85 	"/>
</g>
</svg>
