<?xml version="1.0" encoding="utf-8"?>
<!-- Generator: Adobe Illustrator 16.0.0, SVG Export Plug-In . SVG Version: 6.00 Build 0)  -->
<!DOCTYPE svg PUBLIC "-//W3C//DTD SVG 1.1//EN" "http://www.w3.org/Graphics/SVG/1.1/DTD/svg11.dtd">
<svg version="1.1" id="Layer_1" xmlns="http://www.w3.org/2000/svg" xmlns:xlink="http://www.w3.org/1999/xlink" x="0px" y="0px"
	 width="307.75px" height="50px" viewBox="0 0 307.75 50" enable-background="new 0 0 307.75 50" xml:space="preserve">
<path fill="#010101" d="M48.758,12.567c-1.894-0.576-3.804,0.107-5.689,0c-7.393,0.155-14.525,2.245-21.828,3.146
	c-2.067,0.251-4.052,1.309-6.043,2.075c-1.97,0.733-3.823,1.222-6.267,1.222c-0.751,0.491-1.461,0-1.461-0.891
	c-0.205-1.059,0-1.546,0.976-1.991c6.054-1.506,11.723-3.462,18.066-3.944c3.762-0.344,7.389-1.432,11.134-1.756
	c4.572-0.196,8.887-1.175,13.769-0.228c0.569,0,0.977,0,1.464,0.489c1.433,0.979,1.468,1.949,0,2.861
	c-2.016,2.05-4.882,2.538-7.322,3.835c-3.789,1.625-7.814,2.605-12.208,4.067c2.128,0.49,4.247-0.071,6.347-0.17
	c6.778-0.337,13.543-1.027,20.34-1.272c3.163-0.108,6.305-0.687,9.462-0.956c5.221-0.441,10.415-1.131,15.645-1.493
	c4.613-0.313,9.191-1.058,13.79-1.593c1.732-0.205,3.475-0.365,5.221-0.542c7.331-0.74,14.537-2.338,21.819-3.452
	c4.441-0.678,8.905-1.266,13.338-2.016c5.849-0.998,11.738-1.72,17.542-2.935c2.586-0.542,5.216-0.959,7.849-1.176
	c4.409-0.368,8.653-1.674,13.047-2.11c1.983-0.203,3.994-0.368,5.978-0.597c2.927-0.336,5.848-0.811,8.781-1.222
	c1.519-0.211,3.064-0.003,4.579-0.307c-1.965,0.945-4.082,1.406-6.206,1.463c-5.609,0.706-11.103,2.015-16.663,3.009
	c-4.872,0.868-9.696,2.01-14.59,2.695c-3.581,0.509-7.021,1.614-10.602,1.956c-5.448,0.687-10.899,1.394-16.297,2.391
	c-5.719,1.052-11.464,1.996-17.212,2.862c-7.417,1.114-14.819,2.312-22.29,2.932c-7.668,0.787-15.338,1.523-23.001,2.306
	c-4.558,0.468-9.111,0.883-13.669,1.334c-1.487,0.148-1.999,0.718-1.955,2.437c0.117,4.443-0.152,8.898-0.38,13.339
	c-0.149,2.912-0.248,5.809-0.625,8.695c-0.043,0.488,0.489,0.861-0.212,0.977c-0.434,0.057-0.669-0.355-0.805-0.736
	c-0.754-2.213-0.88-4.549-0.997-6.828c-0.208-4.232,0.433-8.461-0.295-12.723c-0.822-4.762-0.684-4.866-5.542-4.221
	c-0.839,0.389-1.657,0.389-2.634,0.526c-1.289,0.354-13.666,1.324-17.574,1.816c-3.692,0-7.326,0.975-11.229,1.389
	c-2.075,0.074-4.395,0.56-6.345,0.729c-0.913-0.166-1.958,0.328-2.932,0.328c-0.696-0.498-1.468-0.498-1.468-1.586
	c-0.096-0.857,0.488-1.834,1.468-2.034c2.709-0.286,5.369-0.774,7.813-0.774c3.788-0.22,7.298-1.652,10.985-2.271
	c5.256-1.149,10.498-3.102,15.38-4.321c3.357-0.961,6.482-2.736,9.711-4.14c-0.073-0.013,0.055-0.499,0.055-0.596H48.758z"/>
<path fill="#010101" d="M216.789,44.328c-3.308-0.135-3.158-2.934-3.643-4.881c-0.747-2.93-0.934-6.008-1.336-9.023
	c-0.13-0.934-0.055-2.018,0.83-2.363c0.861-0.334,1.489,0.408,2.012,1.365c0.725,1.43,1.526,0.906,1.809-0.184
	c1.203-2.422,2.896-4.474,4.915-6.194c1.421-1.214,3.004-2.419,5.091-1.716c1.794,0.403,3.059,2.786,3.179,5.164
	c0.025,2.774-0.542,5.427-2.12,7.733c-1.027,1.527-0.408,1.973,1.089,2.396c3.987,0.793,7.87,1.096,12.32,2.068
	c7.083,1.631,14.276,2.268,21.666,3.451c3.376,0.322,6.893,1.135,10.326,1.467c5.024,0.746,10.308,0.982,15.239,1.688
	c4.816,0.762,9.815,1.008,14.247,1.82c1.203-0.051,2.469,0.381,3.521,1.793c-3.26-0.199-6.289-0.287-9.29-0.422
	c-7.504-0.322-15.002-0.998-22.513-1.398c-5.791-0.301-11.559-1.078-17.336-1.795c-8.744-1.051-17.493-2.186-26.237-3.406
	c-2.29-0.314-4.521-1.068-6.789-1.611c-0.99-0.248-1.794-0.682-1.994-1.85c-0.187-1.135,0.187-1.986,0.982-2.787
	c1.856-1.83,3.375-3.902,4.184-6.41c0.075-0.248,0.237-0.496,0.229-0.722c0.009-1.123,0.095-2.488-0.888-3.043
	c-1.021-0.565-1.975,0.463-2.64,1.202c-4.208,4.766-6.82,10.154-6.23,16.902c0.039,0.5,0.021,0.5,0.05,0.984
	c-0.591-0.484-0.876-0.477-0.859-0.229H216.789z"/>
<path fill="#010101" d="M86.889,46.553c-0.327,0.975,0.488,2.549-0.705,2.441c-1.283-0.078-1.748-1.699-2.088-2.947
	c-0.634-2.355-1.221-4.73-1.832-7.094c-0.047-0.182-0.176-0.332-0.4-0.756c-0.918,1.787-1.79,3.396-2.576,5.049
	c-0.336,0.715-0.733,1.355-1.269,1.932c-1.459,1.604-3.28,1.426-4.083-0.576c-0.689-1.727-1.12-3.541-1.73-5.535
	c-0.91,1.672-1.719,3.148-2.54,4.666c-0.328,0.607-0.602,1.467-1.477,1.457c-0.929-0.207-2.066-0.588-1.969-1.803
	c0.239-2.986-1.436-5.826-0.608-8.83c0.137-0.508-0.234-0.885-0.281-1.312c-0.126-1.062,0.164-2.082,1.403-2.129
	c1.151-0.055,1.956,0.486,1.956,1.891c0.061,0.98,0,1.953,0,3.42c1.253-1.254,1.763-2.543,2.494-3.658
	c0.415-0.646,0.429-2.033,1.523-1.629c0.93,0.486,1.951,0.982,1.951,2.439c0.259,1.955,0.49,3.912,0.978,5.959
	c0.091,0.506,0,1.467,0.98,1.879c0.616-1.27,1.198-2.498,1.814-3.709c0.58-1.137,1.103-2.307,1.893-3.359
	c1.562-2.119,2.145-2.201,3.644-0.027c1.9,2.938,1.954,5.863,2.444,9.279c0.026,0.258-0.052,0.482,0.488,0.639
	c0.311-1.289,0.913-2.564,0.866-3.832c-0.073-2.234,1.169-3.807,2.207-5.494c1.313-2.107,5.496-2.812,7.934-1.467
	c2.511,1.459,3.42,4.393,1.95,7.057c-0.938,2.209-2.476,3.912-4.177,5.369c-3.09,2.439-5.698,2.928-8.626,0.686h-0.161V46.553z
	 M90.154,43.623c-0.12,0.965-0.146,1.955,1.462,1.459c2.476-0.695,5.887-5.266,5.688-7.764c-0.102-1.285-0.875-2.066-2.123-2.479
	c-1.345-0.436-1.161,0.42-1.239,0.973c-0.019,0.211-0.477,0.516-0.734,0.523c-1.474,0.041-1.661,1.221-2.082,2.203
	c-0.903,1.955-0.651,3.414-1.139,5.082h0.166V43.623z"/>
<path fill="#010101" d="M144.009,32.766c-0.545-4.226-2.181-8.07-4.258-11.756c-0.729-1.298-1.634-2.456-2.899-3.282
	c-0.364-0.234-0.628-0.491-0.39-0.933c0.197-0.366,0.544-0.577,0.966-0.532c1.183,0,2.438,0.488,2.928,1.382
	c2.763,2.929,4.395,5.859,5.862,9.623c0.508,1.459,1.464,2.93,0.972,4.387c-0.041,0.984,0.493,0.984,0.981,0.445
	c1.214-0.732,2.342-1.67,3.642-2.201c2.177-0.922,4.45-1.609,6.704-2.353c0.531-0.182,1.266-0.389,1.463,0.295
	c0.333,0.771-0.505,0.944-0.941,1.202c-3.759,2.123-7.488,4.281-10.433,7.326c-3.584,0.443-3.745,4.527-6.565,6.051
	c-4.515,2.461-8.952,0.695-11.449-2.422c-0.435-0.529-0.712-1.561-1.428-1.334c-0.569,0.182-1.146,1.078-1.306,1.734
	c-0.5,2.139-1.968,3.623-3.284,5.148c-1.742,2.002-4.929,1.045-5.561-1.582c-0.605-2.506-0.844-5.006-0.657-7.646
	c0.128-1.854,0.026-3.77,0.128-5.674c0.106-1.877,1.947-3.753,3.774-3.537c0.637,0,1.467,0.484,1.467,1.059
	c0.065,0.497,0,1.344-0.669,1.621c-2.028,0.629-2.024,2.652-2.112,3.9c-0.185,2.955-0.179,5.863,0.487,8.928
	c0.153,0.486,0,0.969,0.98,1.047c0.686,0,1.013-0.324,1.298-0.934c1.262-2.789,2.52-5.58,3.909-8.299
	c0.96-1.896,2.118-1.842,3.546-0.141c0.999,0.979,1.463,2.438,2.44,3.916c3.051,2.93,8.298,2.441,9.407-2.678
	c0.73-0.885,1.174-1.861,1.174-2.75h-0.171v-0.012H144.009z"/>
<path fill="#010101" d="M166.275,35.098c0.964-1.457,1.661-2.697,2.537-3.795c2.823-3.492,5.186-1.906,6.839,1.246
	c0.248,0.49,0.485,0.984,0.485,1.688c0.343,0.975,0.981,1.459,2.44,1.459c1.365-0.113,0.42-1.086,0.555-1.641
	c0.182-0.723,0-1.734,0.983-1.869c1.021-0.125,1.954,0.488,2.437,1.469c0.697,2.443,1.954,4.885,3.913,7.189
	c0.552-2.6,1.003-4.975,1.568-7.285c0.602-2.412,1.149-4.855,2.87-6.829c0.54-0.616,1.015-1.166,1.729-0.678
	c0.611,0.492,0.974,1.462,0.974,2.007c-2.135,4.576-2.423,9.562-3.283,14.643c-0.208,1.225-0.876,2.463-1.641,3.463
	c-1.773,0.67-2.51,0.184-3.489-0.592c-1.892-2.066-3.558-4.291-4.93-6.74c-0.283-0.514-0.42-1.65-1.448-1.031
	c-0.723,0.441-1.208,1.078-0.679,2.117c0.527,0.971,0.975,1.953,0.975,3.418c0.209,0.482,0,1.436-0.557,1.658
	c-0.656,0.197-0.97-0.299-1.306-0.998c-0.681-1.424-1.525-2.861-2.633-3.93c-0.984-0.934-2.356-0.164-3.434,0.324
	c-0.711,0.318-1.411,0.771-2.154,0.801c-1.661,0.051-2.633,0.312-2.271,2.439c0.207,1.271-1.021,0.811-1.649,0.477
	c-1.644-0.857-2.374-2.688-2.14-4.09c0.324-2.033-0.182-3.842-0.39-5.74c-0.117-1.154-0.307-2.5,1.06-2.662
	c1.021-0.115,1.941,0.973,1.941,2.148c0.316,0.379,0.567,0.379,0.567,1.334H166.275z M171.185,37.072
	c0.686-0.467,1.956,0.488,2.325-1.115c0.114-1.051-0.331-2.068-1.516-2.383c-0.547-0.154-2.414,2.182-2.3,2.93
	c0.134,1.061,0.851,0.568,1.334,0.744L171.185,37.072z"/>
<path fill="#010101" d="M193.54,38.312c-0.424-1.051,0.409-2.471-0.972-3.711c-0.929-0.828,0.134-2.031,0.846-2.861
	c1.527-1.754,3.634-2.639,5.667-3.643c1.668-0.821,3.338-1.636,5.018-2.417c2.499-1.163,5.331-0.953,7.895-1.903
	c0.404-0.149,1.497-0.146,1.471,0.684c0.085,0.629-0.704,0.886-1.23,0.977c-4.453,1.297-8.535,3.35-12.397,5.896
	c-0.106,0.066-0.228,0.105-0.345,0.184c-1.278,0.811-2.535,2.117-2.058,3.412c0.31,0.986,2.075-0.17,3.115-0.521
	c2.138-0.717,4.178-1.684,6.277-2.51c0.589-0.24,1.317-0.506,1.459,0.486c0.276,0.648-0.174,1.012-0.649,1.436
	c-2.571,2.295-5.7,3.502-8.82,4.723c-0.183,0.086-0.438,0.027-0.564,0c-0.621,0.59-1.852,0.895-1.668,1.889
	c0.209,0.963,1.47,0.963,2.44,0.971c2.052-0.008,3.975-0.42,5.762-1.496c0.596-0.363,1.297-0.564,1.931-0.887
	c0.438-0.23,0.772-0.422,0.974,0.133c0.381,0.486,0,0.918-0.277,1.461c-2.052,1.895-4.182,3.58-7.087,4.023
	c-1.437,0.209-2.842,0.268-4.203-0.188c-2.396-1.027-2.622-1.514-2.622-6.139h0.04V38.312z"/>
<path fill="#010101" d="M153.433,47.33c-4.147-0.082-6.71-3.803-5.632-7.15c0.257-0.791,0.537-1.582,0.867-2.346
	c0.761-1.734,2.322-2.078,3.591-0.686c0.535,0.486,0.973,0.486,1.461,0c1.191-0.764,2.455-1.42,3.636-2.211
	c0.773-0.516,1.538-0.533,1.957,0.066c0.666,0.705-0.212,1.084-0.602,1.455c-1.764,1.984-3.655,3.826-5.724,5.475
	c-0.555,0.439-1.402,0.877-1.123,1.639c0.324,0.977,1.465,0.488,1.955,0.488c2.221-0.402,3.807-2.064,5.722-3.09
	c0.435-0.234,0.79-0.826,1.324-0.43c0.713,0.494,0,1.01-0.199,1.469c-1.479,3.852-4.28,4.824-7.208,5.318h-0.024V47.33z"/>
<path fill="#010101" d="M63.041,34.154c-0.719,3.902-0.451,8.145-0.126,12.209c0.059,0.967,0.488,1.926-0.92,1.961
	c-1.098,0.469-1.59-0.506-1.59-1.732c0.014-3.682-0.521-7.336-0.462-11.018c0.021-1.324-0.342-2.631-0.111-4.006
	c0.164-1.012,0.479-1.994,1.52-1.834c0.957,0,1.953,0.984,1.953,1.957c-0.269,0.982-0.457,1.488-0.457,2.471h0.193V34.154z"/>
<path fill="#010101" d="M61.69,7.405c0.881,0,1.954,0.488,1.465,1.465c-0.123,0.885-0.612,2.371-1.107,2.139
	c-0.982-0.441-2.108-1.358-2.259-2.62c0.061-1.087,1.391-0.604,1.879-0.981h0.023V7.405z"/>
<path fill="none" d="M90.154,43.623c0.427-1.59,0.07-3.324,0.742-4.902c0.418-0.979,0.609-2.156,2.076-2.203
	c0.263-0.006,0.714-0.303,0.737-0.51c0.075-0.807-0.103-1.662,1.239-1.225c1.248,0.484,1.953,0.973,1.953,2.479
	c0.192,2.492-3.215,7.074-5.688,7.775c-1.202,0.344-1.225-0.639-1.225-1.414H90.154z"/>
<path fill="none" d="M171.185,37.246c-0.613-0.146-1.356,0.207-1.49-0.654c-0.114-0.684,1.753-3.021,2.302-2.879
	c1.176,0.498,1.47,1.471,1.47,2.396c-0.125,1.447-1.449,0.477-2.433,1.137H171.185z"/>
</svg>
